<?xml version="1.0" encoding="UTF-8" standalone="no"?>
<svg
   viewBox="0 0 120 120"
   width="48"
   height="48"
   version="1.1"
   id="svg4"
   xmlns="http://www.w3.org/2000/svg"
   xmlns:svg="http://www.w3.org/2000/svg">
  <defs
     id="defs4" />
  <title
     data-i18n-key="app.name"
     id="title1">BusRouter SG</title>
  <circle
     cx="60"
     cy="60"
     r="56.700001"
     fill="#fff"
     stroke="#00454d"
     stroke-width="6.6"
     id="circle1"
     style="fill:none;stroke:#039203;stroke-opacity:1" />
  <path
     fill="#00454d"
     d="m 86.080001,36.760001 c -0.8,-3.65 -3.28,-5.1 -7.04,-6.55 -3.66,-1.45 -12.5,-3.15 -19.03,-3.2 -6.54,0.05 -15.37,1.76 -19.06,3.2 -3.73,1.44 -6.24,2.9 -7,6.54 l -2.8,20.15 v 27.77 h 4.84 v 4.33 c -0.02,5.33 8.3,5.33 8.32,0.02 v -4.35 h 31.42 v 4.33 c -0.02,5.33 8.3,5.33 8.3,0.02 v -4.35 h 4.85 v -27.77 z m -37.96,-4.66 h 23.78 c 2.32,0 2.32,3.27 0,3.28 h -23.77 c -2.35,0 -2.35,-3.24 0,-3.24 v -0.04 z m -8,43.87 c -2.2,0 -4,-1.67 -4,-3.74 0,-2.05 1.78,-3.72 3.94,-3.72 2.18,0 4,1.68 4,3.73 -0.03,2.08 -1.82,3.73 -4.03,3.74 h 0.08 z m 19.58,-16.97 h -21.2 c -2.1,0.02 -2.5,-1.38 -2.32,-2.76 l 2.2,-14.63 c 0.3,-1.76 0.94,-2.92 3.44,-2.94 h 36.38 c 2.53,0 3.14,1.18 3.45,2.94 l 2.24,14.63 c 0.2,1.4 -0.25,2.77 -2.3,2.77 h -21.86 z m 20.16,16.97 c -2.15,0 -4,-1.67 -4,-3.74 0,-2.05 1.84,-3.72 4,-3.72 2.23,0 4,1.68 4.08,3.73 0,2.08 -1.78,3.73 -4,3.74 h -0.08 z"
     id="path1"
     style="fill:#039203;fill-opacity:1" />
  <circle
     cx="96"
     cy="96"
     r="24"
     fill="#ef2c2e"
     id="circle2"
     style="fill:#ffffff;fill-opacity:1;stroke:none;stroke-opacity:1" />
  <g
     id="g4"
     transform="matrix(0.32421875,0,0,0.32421875,75.250001,81.093751)">
    <path
       fill="#42b883"
       d="M 78.8,10 64,35.4 49.2,10 H 0 L 64,120 128,10 Z"
       data-v-f725b771=""
       id="path3" />
    <path
       fill="#35495e"
       d="M 78.8,10 64,35.4 49.2,10 H 25.6 L 64,76 102.4,10 Z"
       data-v-f725b771=""
       id="path4" />
  </g>
</svg>
